<svg xmlns="http://www.w3.org/2000/svg" width="96" height="96" viewBox="0 0 48 48"><defs><style>.cls-1{fill:#bfbfbf}</style></defs><g id="Brand_Identity" data-name="Brand Identity"><path class="cls-1" d="M41 30V18a6 6 0 0 1 0 12zM11 17h4v14h-4zM19 32a1 1 0 0 1-1-1V17a1 1 0 0 1 2 0v14a1 1 0 0 1-1 1z"/><path class="cls-1" d="M19 32a1 1 0 0 1-1-1V17a1 1 0 0 1 2 0v14a1 1 0 0 1-1 1z"/><path d="M42 17.08V7a1 1 0 0 0-1.65-.76 38.73 38.73 0 0 1-3.9 2.95 1 1 0 0 0 1.1 1.66c.84-.55 1.66-1.13 2.45-1.75v29.79a41.88 41.88 0 0 0-14.65-7.24c-6.9-1.84-6-1.62-6.22-1.62H16V18h3c.21 0-.31.12 6.68-1.74a1 1 0 1 0-.52-1.94L18.87 16H8a8 8 0 0 0 0 16h1v13a1 1 0 0 0 1 1h8a1 1 0 0 0 1-1v-3.5c0-.56-.24-.66-2-2.34V36h3a1 1 0 0 0 .89-.55l1.29-2.57a45.27 45.27 0 0 1 10.87 3.92 39.1 39.1 0 0 1 7.3 5A1 1 0 0 0 42 41V30.92a7 7 0 0 0 0-13.84zM12 18h2v12h-2zm-2 12H8a6 6 0 0 1 0-12h2zm7 14h-6V32h4v7.58c0 .55.18.61 2 2.35zm2.38-10H17v-2a6.77 6.77 0 0 1 3.2.36zM42 28.9v-9.8a5 5 0 0 1 0 9.8z" style="fill:#424242"/><path d="M38 10a8 8 0 1 0-13 6.24V23a1 1 0 0 0 1.45.89L30 22.12l3.55 1.77A1 1 0 0 0 35 23v-6.76A8 8 0 0 0 38 10zm-9.42-1.69L30 6.06l1.42 2.25L34 9l-1.7 2 .17 2.65-2.47-1-2.47 1L27.7 11 26 9zM27 21.38v-4a7.85 7.85 0 0 0 2 .52v2.45zm6 0-2-1v-2.45a7.85 7.85 0 0 0 2-.52z" style="fill:#80a879"/></g></svg>