<svg xmlns="http://www.w3.org/2000/svg" width="48" height="48" viewBox="0 0 48 48" class="svelte-12noxeq"><g id="03-Communication/Social-Facebook" fill="none" fill-rule="evenodd"><path id="Social-Facebook" fill="#75b2ad" fill-rule="nonzero" d="M31.5695321,4.26375771 C31.0292283,4.20789404
								30.5059026,4.15884205 30.0102866,4.11850374
								C29.0695377,4.04193597 28.2685325,4 27.6576639,4
								C25.2947052,4 23.424223,4.77583892
								22.0039611,6.30868654 C20.5555613,7.87110988
								19.9922,9.50018964 19.9922,12.332996
								L19.9922,19.0414711 C19.9922,19.5937559
								19.5444847,20.0414711 18.9922,20.0414711
								L13.9922,20.0414711 L13.9922,26.0414711
								L18.9922,26.0414711 C19.5444847,26.0414711
								19.9922,26.4891864 19.9922,27.0414711
								L19.9922,44.0414711 L25.9922,44.0414711
								L25.9922,27.0414711 C25.9922,26.4891864
								26.4399153,26.0414711 26.9922,26.0414711
								L32.1094178,26.0414711 L32.8594178,20.0414711
								L26.9922,20.0414711 C26.4399153,20.0414711
								25.9922,19.5937559 25.9922,19.0414711
								L25.9922,14.7467793 C25.9922,13.3353258
								26.2749786,12.2201653 26.8881769,11.4151858
								C27.5917855,10.4915195 28.5554933,10.0947364
								30.0901422,10.0947364 L32.9922,10.0947364
								L32.9922,4.42189347 C32.5369615,4.3678567
								32.0576842,4.31422926 31.5695321,4.26375771 Z
								M17.9922,12.332996 C17.9922,9.02171789
								18.7243142,6.90465291 20.537069,4.94919114
								C22.3451789,2.99775041 24.750671,2 27.6576639,2
								C28.3322338,2 29.1824459,2.04451215
								30.1725305,2.12509538 C30.6836298,2.16669387
								31.2212148,2.21708241 31.7752217,2.27436289
								C32.3506026,2.33385328 32.9131851,2.39755205
								33.4402368,2.46126732 C33.7570587,2.49956792
								33.9923207,2.52945373 34.1231276,2.54672867
								C34.6204862,2.61241204 34.9922,3.03644354
								34.9922,3.5381206 L34.9922,11.0947364
								C34.9922,11.6470212 34.5444847,12.0947364
								33.9922,12.0947364 L30.0901422,12.0947364
								C29.136826,12.0947364 28.7694952,12.2459759
								28.4791541,12.6271228 C28.1703313,13.0325317
								27.9922,13.7350072 27.9922,14.7467793
								L27.9922,18.0414711 L33.9922,18.0414711
								C34.593698,18.0414711 35.0590845,18.5686527
								34.9844779,19.1655058 L33.9844779,27.1655058
								C33.9219243,27.6659347 33.4965233,28.0414711
								32.9922,28.0414711 L27.9922,28.0414711
								L27.9922,45.0414711 C27.9922,45.5937559
								27.5444847,46.0414711 26.9922,46.0414711
								L18.9922,46.0414711 C18.4399153,46.0414711
								17.9922,45.5937559 17.9922,45.0414711
								L17.9922,28.0414711 L12.9922,28.0414711
								C12.4399153,28.0414711 11.9922,27.5937559
								11.9922,27.0414711 L11.9922,19.0414711
								C11.9922,18.4891864 12.4399153,18.0414711
								12.9922,18.0414711 L17.9922,18.0414711
								L17.9922,12.332996 Z"></path></g></svg>