<svg version="1.1" id="Layer_1" xmlns="http://www.w3.org/2000/svg" x="0" y="0" width="96" height="96" viewBox="0 0 500 500" style="enable-background:new 0 0 500 500" xml:space="preserve"><style>.st1{fill:#1c1d21}</style><path d="M314.6 353.5H465c16.6 0 30-13.4 30-30V50.4c0-16.6-13.4-30-30-30H35c-16.6 0-30 13.4-30 30v273.1c0 16.6 13.4 30 30 30h279.6z" style="fill:#ecf4f7"/><path d="M40 298.5V75.4c0-11 9-20 20-20h380c11 0 20 9 20 20v223.1c0 11-9 20-20 20H60c-11 0-20-8.9-20-20z" style="fill:#aab1ba"/><path class="st1" d="M465 358.5H35c-19.3 0-35-15.7-35-35V50.4c0-19.3 15.7-35 35-35h430c19.3 0 35 15.7 35 35v273.1c0 19.3-15.7 35-35 35zM35 25.4c-13.8 0-25 11.2-25 25v273.1c0 13.8 11.2 25 25 25h430c13.8 0 25-11.2 25-25V50.4c0-13.8-11.2-25-25-25H35z"/><path class="st1" d="M40 80.4c-2.8 0-5-2.2-5-5 0-13.8 11.2-25 25-25h17.3c2.8 0 5 2.2 5 5s-2.2 5-5 5H60c-8.3 0-15 6.7-15 15 0 2.8-2.2 5-5 5zM40 181.1c-2.8 0-5-2.2-5-5v-74c0-2.8 2.2-5 5-5s5 2.2 5 5v74c0 2.8-2.2 5-5 5zM107 60.4h-7.5c-2.8 0-5-2.2-5-5s2.2-5 5-5h7.5c2.8 0 5 2.2 5 5s-2.2 5-5 5z"/><g><path class="st1" d="M440 323.5h-17.3c-2.8 0-5-2.2-5-5s2.2-5 5-5H440c8.3 0 15-6.7 15-15 0-2.8 2.2-5 5-5s5 2.2 5 5c0 13.8-11.2 25-25 25zM460 276.9c-2.8 0-5-2.2-5-5v-74c0-2.8 2.2-5 5-5s5 2.2 5 5v74c0 2.7-2.2 5-5 5zM400.5 323.5H393c-2.8 0-5-2.2-5-5s2.2-5 5-5h7.5c2.8 0 5 2.2 5 5s-2.2 5-5 5z"/></g><g><path d="M137.6 384.4c-8.6-3.1-10.5-14.6-3.1-20 14.1-10.3 23.2-27 23.2-45.8 0-31.4-25.5-56.9-56.9-56.9s-56.9 25.5-56.9 56.9c0 18.8 9.1 35.5 23.2 45.8 7.4 5.4 5.5 16.9-3.1 20l-32.5 11.5C15.6 401.6 5 416.7 5 433.6v46h191.7v-46c0-16.9-10.6-32-26.6-37.7l-32.5-11.5z" style="fill:#80a879"/><path class="st1" d="M196.7 484.6H5c-2.8 0-5-2.2-5-5v-46c0-19 12-36 29.9-42.4l32.5-11.5c2.3-.8 3.9-2.8 4.3-5.2.2-1.1.3-4-2.5-6C48.4 356.8 39 338.2 39 318.6c0-34.1 27.8-61.9 61.9-61.9 34.1 0 61.9 27.8 61.9 61.9 0 19.6-9.4 38.2-25.2 49.8-2.7 2-2.6 4.9-2.5 6 .4 2.5 2 4.4 4.3 5.2l32.5 11.5c17.9 6.4 29.9 23.4 29.9 42.4v46c-.1 2.8-2.4 5.1-5.1 5.1zM10 474.6h181.7v-41c0-14.8-9.3-28-23.3-32.9l-32.5-11.5c-5.8-2.1-9.9-7.1-10.8-13.2-.9-6.1 1.5-11.9 6.4-15.5 13.2-9.7 21.1-25.4 21.1-41.8 0-28.6-23.3-51.9-51.9-51.9C72.2 266.7 49 290 49 318.6c0 16.4 7.9 32 21.1 41.8 4.9 3.6 7.3 9.4 6.4 15.5-.9 6.1-5 11.1-10.8 13.2l-32.5 11.5c-13.9 5-23.2 18.2-23.2 33v41z"/></g><g><path d="m300.2 115.6-7.5 7.5c-3.1 3.1-8 4-11.9 2.1-2.8-1.4-5.7-2.6-8.6-3.6-4.2-1.4-7-5.5-7-9.9V101c0-5.8-4.7-10.5-10.5-10.5h-9c-5.8 0-10.5 4.7-10.5 10.5v10.7c0 4.5-2.8 8.5-7 9.9-2.9 1-5.8 2.2-8.6 3.6-4 2-8.8 1.1-11.9-2.1l-7.5-7.5c-4.1-4.1-10.8-4.1-14.9 0l-6.4 6.4c-4.1 4.1-4.1 10.8 0 14.9l7.5 7.5c3.1 3.1 4 8 2.1 11.9-1.4 2.8-2.6 5.7-3.6 8.6-1.4 4.2-5.5 7-9.9 7h-10.7c-5.8 0-10.5 4.7-10.5 10.5v9c0 5.8 4.7 10.5 10.5 10.5H175c4.5 0 8.5 2.8 9.9 7 1 2.9 2.2 5.8 3.6 8.6 2 4 1.1 8.8-2.1 11.9l-7.5 7.5c-4.1 4.1-4.1 10.8 0 14.9l6.4 6.4c4.1 4.1 10.8 4.1 14.9 0l7.5-7.5c3.1-3.1 8-4 11.9-2.1 2.8 1.4 5.7 2.6 8.6 3.6 4.2 1.4 7 5.5 7 9.9v10.7c0 5.8 4.7 10.5 10.5 10.5h9c5.8 0 10.5-4.7 10.5-10.5v-10.7c0-4.5 2.8-8.5 7-9.9 2.9-1 5.8-2.2 8.6-3.6 4-2 8.8-1.1 11.9 2.1l7.5 7.5c4.1 4.1 10.8 4.1 14.9 0l6.4-6.4c4.1-4.1 4.1-10.8 0-14.9l-7.5-7.5c-3.1-3.1-4-8-2.1-11.9 1.4-2.8 2.6-5.7 3.6-8.6 1.4-4.2 5.5-7 9.9-7h10.7c5.8 0 10.5-4.7 10.5-10.5v-9c0-5.8-4.7-10.5-10.5-10.5h-10.7c-4.5 0-8.5-2.8-9.9-7-1-2.9-2.2-5.8-3.6-8.6-2-4-1.1-8.8 2.1-11.9l7.5-7.5c4.1-4.1 4.1-10.8 0-14.9l-6.4-6.4c-4.2-4.1-10.8-4.1-14.9 0zm-27.5 94.1c-12.5 12.5-32.8 12.5-45.3 0s-12.5-32.8 0-45.3 32.8-12.5 45.3 0 12.5 32.7 0 45.3z" style="fill:#b1d4ac"/><path class="st1" d="M254.5 288.5h-9c-8.6 0-15.5-7-15.5-15.5v-10.7c0-2.4-1.5-4.4-3.6-5.2-3.2-1.1-6.3-2.4-9.3-3.8-2-1-4.5-.6-6.2 1.1l-7.5 7.5c-2.9 2.9-6.8 4.5-11 4.5-4.1 0-8-1.6-11-4.5l-6.4-6.4c-2.9-2.9-4.5-6.8-4.5-11 0-4.1 1.6-8 4.5-11l7.5-7.5c1.7-1.7 2.1-4.2 1.1-6.2-1.5-3-2.8-6.1-3.8-9.3-.7-2.2-2.8-3.6-5.2-3.6h-10.7c-8.6 0-15.5-7-15.5-15.5v-9c0-8.6 7-15.5 15.5-15.5h10.7c2.4 0 4.4-1.5 5.2-3.6 1.1-3.2 2.4-6.3 3.8-9.3 1-2 .6-4.5-1.1-6.2l-7.5-7.5c-2.9-2.9-4.5-6.8-4.5-11 0-4.1 1.6-8 4.5-11l6.4-6.4c6.1-6 15.9-6 21.9 0l7.5 7.5c1.7 1.7 4.2 2.1 6.2 1.1 3-1.5 6.1-2.8 9.3-3.8 2.2-.7 3.6-2.8 3.6-5.2V101c0-8.6 7-15.5 15.5-15.5h9c8.6 0 15.5 7 15.5 15.5v10.7c0 2.4 1.5 4.4 3.6 5.2 3.2 1.1 6.3 2.4 9.3 3.8 2 1 4.5.6 6.2-1.1l7.5-7.5c6-6 15.9-6 21.9 0l6.4 6.4c2.9 2.9 4.5 6.8 4.5 11 0 4.1-1.6 8-4.5 11l-7.5 7.5c-1.7 1.7-2.1 4.2-1.1 6.2 1.5 3 2.8 6.1 3.8 9.3.7 2.2 2.8 3.6 5.2 3.6h10.7c8.6 0 15.5 7 15.5 15.5v9c0 8.6-7 15.5-15.5 15.5h-10.7c-2.4 0-4.4 1.5-5.2 3.6-1.1 3.2-2.4 6.3-3.8 9.3-1 2-.6 4.5 1.1 6.2l7.5 7.5c2.9 2.9 4.5 6.8 4.5 11 0 4.1-1.6 8-4.5 11l-6.4 6.4c-2.9 2.9-6.8 4.5-11 4.5-4.1 0-8-1.6-11-4.5l-7.5-7.5c-1.7-1.7-4.2-2.1-6.2-1.1-3 1.5-6.1 2.8-9.3 3.8-2.2.7-3.6 2.8-3.6 5.2v10.7c.2 8.3-6.7 15.3-15.3 15.3zm-39.7-45.8c2.3 0 4.6.5 6.7 1.6 2.6 1.3 5.3 2.4 8 3.3 6.2 2.1 10.4 8 10.4 14.7V273c0 3 2.5 5.5 5.5 5.5h9c3 0 5.5-2.5 5.5-5.5v-10.7c0-6.7 4.2-12.6 10.4-14.7 2.7-.9 5.4-2 8-3.3 5.9-2.9 13-1.7 17.7 3l7.5 7.5c1 1 2.4 1.6 3.9 1.6s2.9-.6 3.9-1.6l6.4-6.4c1-1 1.6-2.4 1.6-3.9s-.6-2.9-1.6-3.9l-7.5-7.5c-4.7-4.7-5.9-11.8-3-17.7 1.3-2.6 2.4-5.3 3.3-8 2.1-6.2 8-10.4 14.7-10.4h10.7c3 0 5.5-2.5 5.5-5.5v-9c0-3-2.5-5.5-5.5-5.5h-10.7c-6.7 0-12.6-4.2-14.7-10.4-.9-2.7-2-5.4-3.3-8-2.9-5.9-1.7-13 3-17.7l7.5-7.5c1-1 1.6-2.4 1.6-3.9s-.6-2.9-1.6-3.9l-6.4-6.4c-2.1-2.1-5.6-2.1-7.8 0l-7.5 7.5c-4.7 4.7-11.8 5.9-17.7 3-2.6-1.3-5.3-2.4-8-3.3-6.2-2.1-10.4-8-10.4-14.7V101c0-3-2.5-5.5-5.5-5.5h-9c-3 0-5.5 2.5-5.5 5.5v10.7c0 6.7-4.2 12.6-10.4 14.7-2.7.9-5.4 2-8 3.3-5.9 2.9-13 1.7-17.7-3l-7.5-7.5c-2.2-2.1-5.6-2.1-7.8 0l-6.4 6.4c-1 1-1.6 2.4-1.6 3.9s.6 2.9 1.6 3.9l7.5 7.5c4.7 4.7 5.9 11.8 3 17.7-1.3 2.6-2.4 5.3-3.3 8-2.1 6.2-8 10.4-14.7 10.4h-10.7c-3 0-5.5 2.5-5.5 5.5v9c0 3 2.5 5.5 5.5 5.5h10.7c6.7 0 12.6 4.2 14.7 10.4.9 2.7 2 5.4 3.3 8 2.9 5.9 1.7 13-3 17.7l-7.5 7.5c-1 1-1.6 2.4-1.6 3.9s.6 2.9 1.6 3.9l6.4 6.4c1 1 2.4 1.6 3.9 1.6s2.9-.6 3.9-1.6l7.5-7.5c3-3 7-4.6 11-4.6zm85.4-127.1zM250 224c-9.9 0-19.2-3.9-26.2-10.8-7-7-10.8-16.3-10.8-26.2s3.9-19.2 10.8-26.2c14.4-14.4 37.9-14.4 52.4 0 7 7 10.8 16.3 10.8 26.2s-3.9 19.2-10.8 26.2c-7 7-16.3 10.8-26.2 10.8zm0-64c-6.9 0-13.8 2.6-19.1 7.9-5.1 5.1-7.9 11.9-7.9 19.1s2.8 14 7.9 19.1c5.1 5.1 11.9 7.9 19.1 7.9 7.2 0 14-2.8 19.1-7.9 5.1-5.1 7.9-11.9 7.9-19.1s-2.8-14-7.9-19.1c-5.3-5.3-12.2-7.9-19.1-7.9zm22.7 49.7z"/></g><g><path class="st1" d="M260 484.6h-77c-2.8 0-5-2.2-5-5s2.2-5 5-5h77c2.8 0 5 2.2 5 5 0 2.7-2.2 5-5 5z"/></g><g><path class="st1" d="M304 484.6h-21c-2.8 0-5-2.2-5-5s2.2-5 5-5h21c2.8 0 5 2.2 5 5 0 2.7-2.2 5-5 5z"/></g><g><path class="st1" d="M333.3 484.6H325c-2.8 0-5-2.2-5-5s2.2-5 5-5h8.3c2.8 0 5 2.2 5 5 0 2.7-2.3 5-5 5z"/></g></svg>